# xmcd
#
# Track frame offsets: 
#        150
#        6376
#        22974
#        33150
#        50645
#        70094
#        84301
#        93192
#        108336
#        112046
#        119652
#        129183
#        140370
#        154563
#        167550
#        198252
#        209732
#
# Disc length: 3598 seconds
#
# Revision: 0
# Processed by: cddbd v1.5.1PL2 Copyright (c) Steve Scherf et al.
# Submitted via: ExactAudioCopy v0.95b4
#
DISCID=de0e0c11
DTITLE=Freddy Fudd Pucker - Freddy Fudd Pucker
DYEAR=2006
DGENRE=Alt. Country
TTITLE0=call out the search party
TTITLE1=freddy fudd pucker
TTITLE2=the man cums
TTITLE3=i love Slayer
TTITLE4=smells like teen binge drinkin'
TTITLE5=lets go get drunk in woodhaugh
TTITLE6=the drought
TTITLE7=summer bay blues
TTITLE8=sniffin' panties
TTITLE9=romeo is a rapist
TTITLE10=the key
TTITLE11=kelly vs. freddy
TTITLE12=i've got a gun
TTITLE13=friends in high places
TTITLE14=the leaky boat
TTITLE15=secrets
TTITLE16=secrets
EXTD=
EXTT0=
EXTT1=
EXTT2=
EXTT3=
EXTT4=
EXTT5=
EXTT6=
EXTT7=
EXTT8=
EXTT9=
EXTT10=
EXTT11=
EXTT12=
EXTT13=
EXTT14=
EXTT15=
EXTT16=
PLAYORDER=
